<?xml version="1.0" encoding="UTF-8" standalone="no"?>
<!-- Created with Inkscape (http://www.inkscape.org/) -->

<svg
   version="1.1"
   id="svg1"
   width="604.91998"
   height="225.75999"
   viewBox="0 0 604.91998 225.75999"
   sodipodi:docname="UHLogo.eps"
   xmlns:inkscape="http://www.inkscape.org/namespaces/inkscape"
   xmlns:sodipodi="http://sodipodi.sourceforge.net/DTD/sodipodi-0.dtd"
   xmlns="http://www.w3.org/2000/svg"
   xmlns:svg="http://www.w3.org/2000/svg">
  <defs
     id="defs1" />
  <sodipodi:namedview
     id="namedview1"
     pagecolor="#ffffff"
     bordercolor="#000000"
     borderopacity="0.25"
     inkscape:showpageshadow="2"
     inkscape:pageopacity="0.0"
     inkscape:pagecheckerboard="0"
     inkscape:deskcolor="#d1d1d1">
    <inkscape:page
       x="0"
       y="0"
       inkscape:label="1"
       id="page1"
       width="604.91998"
       height="225.75999"
       margin="0"
       bleed="0" />
  </sodipodi:namedview>
  <g
     id="g1"
     inkscape:groupmode="layer"
     inkscape:label="1">
    <g
       id="group-R5">
      <path
         id="path2"
         d="m 1523.99,1072.48 h -265.35 v 17.24 c 82.69,3.69 85.44,24.55 85.44,91.86 v 454.32 h -49.05 c -100,0 -124.52,-17.24 -144.54,-116.35 h -21.79 l 5.46,154.58 h 512.54 l 5.45,-154.58 h -21.81 c -19.1,100.05 -44.54,116.35 -144.5,116.35 h -49.07 v -464.34 c 0,-61.78 10.89,-79.07 87.22,-81.84 v -17.24"
         style="fill:#2a5849;fill-opacity:1;fill-rule:nonzero;stroke:none"
         transform="matrix(0.13333333,0,0,-0.13333333,0,225.76)" />
      <path
         id="path3"
         d="m 1943.69,1105.15 c -49.1,-12.66 -83.67,-25.41 -126.33,-40.85 l -1.83,1.81 v 75.41 l -39.09,-39.04 c -35.4,-35.41 -79.04,-39.14 -95.4,-39.14 -37.29,0 -108.15,21.85 -108.15,118.24 v 228.97 c 0,54.56 -29.07,56.36 -56.33,58.17 v 12.71 h 132.68 v -296.29 c 0,-12.66 8.16,-69.03 68.14,-69.03 27.26,0 54.53,12.75 79.07,32.71 8.2,7.21 14.55,16.36 14.55,46.35 v 213.53 c 0,36.41 -3.65,55.45 -67.25,57.25 v 15.48 h 143.56 v -311.72 c 0,-32.68 1.81,-53.6 56.38,-51.76 v -12.8"
         style="fill:#2a5849;fill-opacity:1;fill-rule:nonzero;stroke:none"
         transform="matrix(0.13333333,0,0,-0.13333333,0,225.76)" />
      <path
         id="path4"
         d="m 1927.3,1086.11 c 53.61,3.61 69.98,15.48 69.98,65.39 v 433.54 c 0,40.89 -5.46,55.44 -40.86,55.44 -11.84,0 -20.01,-0.97 -30.94,-1.84 v 14.54 c 48.18,11.84 96.33,24.5 144.53,39.98 l 3.6,-1.8 v -542.54 c 0,-52.72 15.45,-59.94 68.17,-62.71 v -13.63 H 1927.3 v 13.63"
         style="fill:#2a5849;fill-opacity:1;fill-rule:nonzero;stroke:none"
         transform="matrix(0.13333333,0,0,-0.13333333,0,225.76)" />
      <path
         id="path5"
         d="m 2367.12,1316 c -137.19,-45.46 -147.2,-96.34 -147.2,-127.16 v -1.85 c 0,-42.7 26.37,-70.88 60,-70.88 19.97,0 48.14,11.87 56.34,16.36 28.16,13.63 30.86,24.53 30.86,51.84 z m 140.91,-207.14 c -38.18,-44.56 -66.38,-45.52 -80.91,-45.52 -16.36,0 -54.49,0.96 -59.07,66.4 -33.62,-30 -81.76,-66.4 -131.75,-66.4 -49.06,0 -96.36,33.73 -96.36,94.54 0,90.89 79.07,121.8 227.18,179.98 v 55.45 c 0,65.39 -42.7,75.41 -69.95,75.41 -29.97,0 -64.53,-16.36 -64.53,-44.49 0,-13.68 4.55,-27.36 4.55,-35.49 0,-19.05 -17.27,-39.09 -40.88,-39.09 -28.18,0 -39.11,25.5 -39.11,40.01 0,36.37 42.74,100.87 148.14,100.87 135.44,0 135.44,-90.89 135.44,-145.41 v -177.21 c 0,-26.39 0,-52.72 26.32,-52.72 19.12,0 30.91,9.09 40.93,17.28 v -23.61"
         style="fill:#2a5849;fill-opacity:1;fill-rule:nonzero;stroke:none"
         transform="matrix(0.13333333,0,0,-0.13333333,0,225.76)" />
      <path
         id="path6"
         d="m 2564.37,1379.63 c 0,57.26 -17.27,58.17 -31.82,58.17 -12.75,0 -22.73,-1.79 -26.37,-3.64 v 15.44 c 40.92,11.82 83.62,25.46 125.43,40.93 l 6.35,-1.84 v -71.81 c 44.51,41.82 79.05,73.65 132.66,73.65 41.81,0 106.34,-24.58 106.34,-136.32 V 1146.1 c 0,-42.71 10.94,-56.38 55.43,-59.99 v -13.63 h -189.01 v 13.63 c 33.62,2.77 57.26,7.3 57.26,76.34 v 189.89 c 0,55.48 -16.38,88.19 -69.99,88.19 -27.26,0 -55.42,-18.2 -89.97,-51.79 v -255.35 c 0,-30 12.72,-44.51 59.98,-47.28 v -13.63 h -192.67 v 13.63 c 42.71,2.77 56.38,14.52 56.38,68.17 v 225.35"
         style="fill:#2a5849;fill-opacity:1;fill-rule:nonzero;stroke:none"
         transform="matrix(0.13333333,0,0,-0.13333333,0,225.76)" />
      <path
         id="path7"
         d="m 3179.49,1353.29 c -6.39,43.58 -15.49,104.49 -87.25,104.49 -49.98,0 -85.43,-24.5 -99.94,-104.49 z m 109.96,-138.08 c -9.12,-28.22 -61.82,-151.87 -192.72,-151.87 -100.82,0 -169.91,74.62 -169.91,203.63 0,168.12 112.71,223.56 185.38,223.56 85.43,0 149.96,-47.26 159.98,-166.35 h -282.63 c 10.88,-160.8 84.51,-198.09 144.51,-198.09 80.84,0 119.9,61.82 140.82,95.43 l 14.57,-6.31"
         style="fill:#2a5849;fill-opacity:1;fill-rule:nonzero;stroke:none"
         transform="matrix(0.13333333,0,0,-0.13333333,0,225.76)" />
      <path
         id="path8"
         d="m 1889.14,954.586 c -69.98,-7.305 -85.41,-20.941 -85.41,-116.352 V 601.039 c 0,-72.648 0,-243.519 -235.37,-243.519 -225.39,0 -225.39,177.218 -225.39,231.691 v 283.578 c 0,67.195 -12.73,77.266 -81.81,81.797 v 17.273 h 257.18 v -17.273 c -71.78,-5.504 -82.67,-17.332 -82.67,-81.797 V 581.961 c 0,-58.141 0,-184.481 158.11,-184.481 70.88,0 122.68,29.11 149.04,71.829 11.81,19.961 20.89,49.941 20.89,123.652 v 245.273 c 0,97.266 -21.79,112.692 -85.42,116.352 v 17.273 h 210.85 v -17.273"
         style="fill:#2a5849;fill-opacity:1;fill-rule:nonzero;stroke:none"
         transform="matrix(0.13333333,0,0,-0.13333333,0,225.76)" />
      <path
         id="path9"
         d="m 1890.04,677.371 c 0,57.258 -17.31,58.184 -31.79,58.184 -12.76,0 -22.76,-1.809 -26.4,-3.649 v 15.434 c 40.88,11.824 83.6,25.461 125.43,40.933 l 6.37,-1.839 v -71.813 c 44.52,41.82 79.04,73.652 132.64,73.652 41.82,0 106.38,-24.582 106.38,-136.324 V 443.84 c 0,-42.711 10.86,-56.379 55.41,-59.981 V 370.23 h -189.04 v 13.629 c 33.63,2.762 57.24,7.301 57.24,76.332 v 189.887 c 0,55.481 -16.31,88.199 -69.95,88.199 -27.31,0 -55.46,-18.203 -89.95,-51.789 V 431.129 c 0,-30 12.71,-44.508 59.95,-47.27 V 370.23 h -192.64 v 13.629 c 42.68,2.762 56.35,14.512 56.35,68.153 v 225.359"
         style="fill:#2a5849;fill-opacity:1;fill-rule:nonzero;stroke:none"
         transform="matrix(0.13333333,0,0,-0.13333333,0,225.76)" />
      <path
         id="path10"
         d="m 2358.96,990.902 c 27.25,0 47.26,-20.89 47.26,-46.339 0,-26.356 -20.01,-46.36 -47.26,-46.36 -32.73,0 -45.4,29.113 -45.4,46.36 0,17.359 13.55,46.339 45.4,46.339 z M 2257.1,383.859 c 56.46,2.762 71.89,8.219 71.89,79.063 V 673.77 c 0,53.558 -17.27,54.484 -31.82,54.484 -12.73,0 -24.58,-1.758 -36.34,-3.609 v 13.632 c 47.24,15.473 93.58,32.672 140.81,49.996 l 3.64,-2.726 V 462.922 c 0,-60.031 4.54,-75.461 67.29,-79.063 V 370.23 H 2257.1 v 13.629"
         style="fill:#2a5849;fill-opacity:1;fill-rule:nonzero;stroke:none"
         transform="matrix(0.13333333,0,0,-0.13333333,0,225.76)" />
      <path
         id="path11"
         d="m 2844.67,765.543 c -30.9,-2.688 -37.24,-17.285 -59.1,-70.93 L 2669.31,402.891 c -10.02,-24.481 -18.22,-45.371 -24.58,-45.371 -8.2,0 -9.99,3.558 -24.53,42.699 -21.81,56.359 -109.01,267.222 -141.78,331.687 -13.58,27.258 -31.8,32.754 -49.95,33.637 v 13.629 h 178.08 v -13.629 c -21.84,-1.852 -41.81,-4.574 -41.81,-27.266 0,-10.949 5.48,-24.492 8.23,-31.836 l 92.68,-232.613 c 30.9,87.25 95.39,229.012 95.39,261.727 0,20.886 -19.92,29.105 -42.7,29.988 v 13.629 h 126.33 v -13.629"
         style="fill:#2a5849;fill-opacity:1;fill-rule:nonzero;stroke:none"
         transform="matrix(0.13333333,0,0,-0.13333333,0,225.76)" />
      <path
         id="path12"
         d="m 3053.8,651.039 c -6.38,43.574 -15.46,104.481 -87.24,104.481 -49.95,0 -85.38,-24.497 -99.99,-104.481 z m 109.98,-138.09 c -9.1,-28.219 -61.79,-151.871 -192.65,-151.871 -100.87,0 -169.96,74.633 -169.96,203.641 0,168.105 112.66,223.554 185.41,223.554 85.43,0 149.88,-47.261 159.96,-166.351 h -282.69 c 10.88,-160.801 84.51,-198.082 144.54,-198.082 80.84,0 119.95,61.82 140.82,95.41 l 14.57,-6.301"
         style="fill:#2a5849;fill-opacity:1;fill-rule:nonzero;stroke:none"
         transform="matrix(0.13333333,0,0,-0.13333333,0,225.76)" />
      <path
         id="path13"
         d="m 3201.91,673.77 c 0,53.558 -17.29,54.484 -31.8,54.484 -12.79,0 -22.73,-1.758 -30.9,-3.609 v 14.558 c 44.48,14.547 89.97,30.863 134.5,49.07 l 4.53,-1.839 v -80.875 h 1.85 c 42.7,64.507 73.52,82.714 108.13,82.714 30.92,0 49.12,-19.078 49.12,-49.07 0,-22.738 -12.75,-40.023 -34.61,-40.023 -31.8,0 -40.9,31.843 -62.7,31.843 -21.81,0 -61.79,-45.472 -61.79,-74.523 V 452.012 c 0,-62.66 30.86,-66.34 77.2,-68.153 V 370.23 h -218.1 v 13.629 c 50.06,9.102 64.57,11.813 64.57,62.7 V 673.77"
         style="fill:#2a5849;fill-opacity:1;fill-rule:nonzero;stroke:none"
         transform="matrix(0.13333333,0,0,-0.13333333,0,225.76)" />
      <path
         id="path14"
         d="m 3671.27,655.559 c -19.96,92.699 -60.86,111.785 -100.86,111.785 -49.97,0 -69.05,-35.438 -69.05,-59.051 0,-18.203 5.45,-44.543 39.1,-64.512 l 98.14,-58.179 c 44.49,-27.25 76.35,-52.672 76.35,-107.25 0,-79.012 -73.64,-117.274 -131.81,-117.274 -40.88,0 -79.94,17.332 -105.39,16.402 -10.96,0 -14.55,-2.73 -20,-10.91 h -11.88 v 141.782 h 14.63 c 10.82,-48.161 28.11,-127.231 117.19,-127.231 30.92,0 73.62,14.551 73.62,66.309 0,29.121 -18.16,50.89 -47.29,67.34 l -52.7,29.902 c -56.34,31.867 -106.31,65.519 -106.31,132.699 0,50.883 39.11,110.902 127.19,110.902 40.02,0 68.16,-18.207 83.65,-18.207 8.2,0 12.75,6.344 15.42,10.024 h 10.02 l 3.6,-124.531 h -13.62"
         style="fill:#2a5849;fill-opacity:1;fill-rule:nonzero;stroke:none"
         transform="matrix(0.13333333,0,0,-0.13333333,0,225.76)" />
      <path
         id="path15"
         d="m 3814.01,990.902 c 27.17,0 47.19,-20.89 47.19,-46.339 0,-26.356 -20.02,-46.36 -47.19,-46.36 -32.81,0 -45.51,29.113 -45.51,46.36 0,17.359 13.67,46.339 45.51,46.339 z m -101.8,-607.043 c 56.29,2.762 71.76,8.219 71.76,79.063 V 673.77 c 0,53.558 -17.27,54.484 -31.84,54.484 -12.75,0 -24.53,-1.758 -36.3,-3.609 v 13.632 c 47.22,15.473 93.59,32.672 140.84,49.996 l 3.69,-2.726 V 462.922 c 0,-60.031 4.53,-75.461 67.15,-79.063 V 370.23 h -215.3 v 13.629"
         style="fill:#2a5849;fill-opacity:1;fill-rule:nonzero;stroke:none"
         transform="matrix(0.13333333,0,0,-0.13333333,0,225.76)" />
      <path
         id="path16"
         d="m 4105.28,750.109 h -91.86 V 490.141 c 0,-28.09 0,-81.743 46.35,-81.743 29.1,0 45.51,20.024 55.45,31.832 l 11.82,-10.011 c -21.76,-39.059 -64.5,-69.141 -106.31,-69.141 -46.35,0 -83.6,24.594 -83.6,115.473 v 273.558 h -48.24 c -1.76,0.918 -3.55,3.641 -3.55,6.332 0,10.903 19.94,16.36 39.92,36.372 34.55,35.429 48.2,55.496 81.82,103.589 6.34,0 6.34,-4.527 6.34,-11.82 v -105.41 h 91.86 v -29.063"
         style="fill:#2a5849;fill-opacity:1;fill-rule:nonzero;stroke:none"
         transform="matrix(0.13333333,0,0,-0.13333333,0,225.76)" />
      <path
         id="path17"
         d="m 4536.88,765.543 c -11.84,-1.852 -29.94,-3.656 -43.59,-40.898 L 4353.35,353.871 c -46.41,-121.711 -86.39,-181.73 -154.54,-181.73 -45.39,0 -66.32,29.097 -66.32,52.66 0,5.488 1.81,40.027 43.63,40.027 24.53,0 52.77,-16.406 64.51,-16.406 47.27,0 83.63,125.5 83.63,140 0,13.629 -43.65,97.238 -56.38,125.367 l -103.54,223.527 c -10.92,22.817 -34.61,27.344 -46.35,29.145 v 12.711 h 187.15 v -13.629 c -20.94,-0.883 -52.71,-1.852 -52.71,-26.34 0,-11.875 6.4,-26.387 9.14,-32.762 l 104.43,-229.89 70.92,201.75 c 9.06,24.539 20.94,53.605 20.94,61.777 0,17.285 -14.59,26.383 -43.64,25.465 v 13.629 h 122.66 v -13.629"
         style="fill:#2a5849;fill-opacity:1;fill-rule:nonzero;stroke:none"
         transform="matrix(0.13333333,0,0,-0.13333333,0,225.76)" />
      <path
         id="path18"
         d="M 6.58594,1677.94 6.72266,1361.86 6.87891,858.16 C 6.87891,678.109 18.7539,624.02 124.477,499.73 230.211,375.469 500.801,275.109 500.801,275.109 c 0,0 270.328,100.36 376.117,224.621 105.734,124.29 117.492,178.379 117.492,358.43 l 0.274,503.7 0.058,316.08 c 0,0 -121.769,-72.5 -245.703,-63.39 -140.547,10.33 -248.238,65.72 -248.238,65.72 0,0 -107.969,-55.39 -248.446,-65.72 -124.015,-9.11 -245.76906,63.39 -245.76906,63.39"
         style="fill:#ffffff;fill-opacity:1;fill-rule:nonzero;stroke:none"
         transform="matrix(0.13333333,0,0,-0.13333333,0,225.76)" />
      <path
         id="path19"
         d="M 6.58594,1677.94 6.72266,1361.86 6.87891,858.16 C 6.87891,678.109 18.7539,624.02 124.477,499.73 230.211,375.469 500.801,275.109 500.801,275.109 c 0,0 270.328,100.36 376.117,224.621 105.734,124.29 117.492,178.379 117.492,358.43 l 0.274,503.7 0.058,316.08 c 0,0 -121.769,-72.5 -245.703,-63.39 -140.547,10.33 -248.238,65.72 -248.238,65.72 0,0 -107.969,-55.39 -248.446,-65.72 -124.015,-9.11 -245.76906,63.39 -245.76906,63.39 z"
         style="fill:none;stroke:#231f20;stroke-width:13.165;stroke-linecap:butt;stroke-linejoin:miter;stroke-miterlimit:4;stroke-dasharray:none;stroke-opacity:1"
         transform="matrix(0.13333333,0,0,-0.13333333,0,225.76)" />
      <path
         id="path20"
         d="m 38.9805,1622.07 0.1367,-279.46 0.1367,-474.087 c 0,-169.457 7.8281,-223.695 107.3321,-340.671 99.523,-116.973 354.215,-211.442 354.215,-211.442 0,0 254.418,94.469 353.98,211.442 99.5,116.976 104.551,167.867 104.551,337.32 l 0.273,474.078 0.059,278.32 c 0,0 -108.594,-49.08 -225.246,-40.47 -132.273,9.73 -233.617,61.86 -233.617,61.86 0.019,0 -104.313,-52.34 -233.856,-61.86 -116.718,-8.61 -227.9645,44.97 -227.9645,44.97"
         style="fill:#2a5849;fill-opacity:1;fill-rule:nonzero;stroke:none"
         transform="matrix(0.13333333,0,0,-0.13333333,0,225.76)" />
      <path
         id="path21"
         d="m 500.168,786.734 c -34.504,0 -143.141,-10.254 -219.918,66.512 -20.445,21.75 -44.836,68.059 -44.836,146.195 0,78.109 0,235.059 0,235.059 0,0 8.531,143.67 -43.496,167.72 l 4.016,19.69 c 0,0 158.211,25.8 195.492,44.85 l 10.883,-60.59 c 0,0 -77.414,-5.71 -77.414,-98.99 0.566,0.54 0.293,-270.18 0.293,-270.18 0,0 -0.965,-45.559 10.179,-74.531 15.621,-40.477 40.918,-58.449 164.285,-58.449"
         style="fill:#ffffff;fill-opacity:1;fill-rule:nonzero;stroke:#231f20;stroke-width:10.124;stroke-linecap:butt;stroke-linejoin:miter;stroke-miterlimit:4;stroke-dasharray:none;stroke-opacity:1"
         transform="matrix(0.13333333,0,0,-0.13333333,0,225.76)" />
      <path
         id="path22"
         d="m 500.133,786.734 c 34.5,0 143.172,-10.254 219.863,66.512 20.41,21.75 44.922,68.059 44.922,146.195 0,78.109 0,235.059 0,235.059 0,0 -8.613,143.67 43.445,167.72 l -4.011,19.69 c 0,0 -158.204,25.8 -195.528,44.85 l -10.871,-60.59 c 0,0 77.383,-5.71 77.383,-98.99 -0.516,0.54 -0.262,-270.18 -0.262,-270.18 0,0 0.946,-45.559 -10.226,-74.531 C 649.242,921.992 623.961,904.02 500.609,904.02"
         style="fill:#ffffff;fill-opacity:1;fill-rule:nonzero;stroke:#231f20;stroke-width:10.124;stroke-linecap:butt;stroke-linejoin:miter;stroke-miterlimit:4;stroke-dasharray:none;stroke-opacity:1"
         transform="matrix(0.13333333,0,0,-0.13333333,0,225.76)" />
      <path
         id="path23"
         d="m 500.133,1315.96 c 230.215,0 341.972,-29.54 341.972,-29.54 l 48.243,-173.17 -53.047,-30.59 -80.059,116.14 c -97.773,14.07 -198.336,13.21 -198.336,13.21 l -0.722,-458.967 c 0,-38.23 7.281,-64.262 43.648,-64.262 0.516,0 67.598,0 67.598,0 V 576.289 h -170 1.461 -170.11 v 112.492 c 0,0 67.184,0 67.68,0 36.375,0 43.617,26.032 43.617,64.262 l -0.699,458.967 c 0,0 -100.586,0.86 -198.274,-13.21 l -80.16,-116.14 -52.988,30.59 48.266,173.17 c 0,0 111.64,29.54 341.945,29.54 h -0.035"
         style="fill:#ffffff;fill-opacity:1;fill-rule:nonzero;stroke:none"
         transform="matrix(0.13333333,0,0,-0.13333333,0,225.76)" />
      <path
         id="path24"
         d="m 500.133,1315.96 c 230.215,0 341.972,-29.54 341.972,-29.54 l 48.243,-173.17 -53.047,-30.59 -80.059,116.14 c -97.773,14.07 -198.336,13.21 -198.336,13.21 l -0.722,-458.967 c 0,-38.23 7.281,-64.262 43.648,-64.262 0.516,0 67.598,0 67.598,0 V 576.289 h -170 1.461 -170.11 v 112.492 c 0,0 67.184,0 67.68,0 36.375,0 43.617,26.032 43.617,64.262 l -0.699,458.967 c 0,0 -100.586,0.86 -198.274,-13.21 l -80.16,-116.14 -52.988,30.59 48.266,173.17 c 0,0 111.64,29.54 341.945,29.54 z"
         style="fill:none;stroke:#231f20;stroke-width:10.124;stroke-linecap:butt;stroke-linejoin:miter;stroke-miterlimit:4;stroke-dasharray:none;stroke-opacity:1"
         transform="matrix(0.13333333,0,0,-0.13333333,0,225.76)" />
    </g>
  </g>
</svg>
