<?xml version="1.0" encoding="UTF-8" standalone="no"?>
<!-- Created with Inkscape (http://www.inkscape.org/) -->

<svg
   version="1.1"
   id="svg1"
   width="605.08002"
   height="225.89333"
   viewBox="0 0 605.08002 225.89333"
   sodipodi:docname="UHLogo-black.eps"
   xmlns:inkscape="http://www.inkscape.org/namespaces/inkscape"
   xmlns:sodipodi="http://sodipodi.sourceforge.net/DTD/sodipodi-0.dtd"
   xmlns="http://www.w3.org/2000/svg"
   xmlns:svg="http://www.w3.org/2000/svg">
  <defs
     id="defs1" />
  <sodipodi:namedview
     id="namedview1"
     pagecolor="#ffffff"
     bordercolor="#000000"
     borderopacity="0.25"
     inkscape:showpageshadow="2"
     inkscape:pageopacity="0.0"
     inkscape:pagecheckerboard="0"
     inkscape:deskcolor="#d1d1d1">
    <inkscape:page
       x="0"
       y="0"
       inkscape:label="1"
       id="page1"
       width="605.08002"
       height="225.89333"
       margin="0"
       bleed="0" />
  </sodipodi:namedview>
  <g
     id="g1"
     inkscape:groupmode="layer"
     inkscape:label="1">
    <g
       id="group-R5">
      <path
         id="path2"
         d="m 1525.22,1073.48 h -265.36 v 17.24 c 82.69,3.69 85.44,24.55 85.44,91.86 v 454.32 h -49.05 c -100,0 -124.52,-17.24 -144.54,-116.35 h -21.79 l 5.46,154.58 h 512.54 l 5.45,-154.58 h -21.81 c -19.1,100.05 -44.54,116.35 -144.5,116.35 h -49.07 v -464.34 c 0,-61.78 10.89,-79.07 87.23,-81.84 v -17.24"
         style="fill:#231f20;fill-opacity:1;fill-rule:nonzero;stroke:none"
         transform="matrix(0.13333333,0,0,-0.13333333,0,225.89333)" />
      <path
         id="path3"
         d="m 1944.91,1106.15 c -49.1,-12.66 -83.66,-25.41 -126.33,-40.85 l -1.83,1.81 v 75.41 l -39.09,-39.04 c -35.4,-35.41 -79.04,-39.14 -95.4,-39.14 -37.29,0 -108.15,21.85 -108.15,118.24 v 228.97 c 0,54.56 -29.07,56.36 -56.33,58.17 v 12.71 h 132.68 v -296.29 c 0,-12.66 8.16,-69.03 68.14,-69.03 27.26,0 54.53,12.75 79.07,32.71 8.2,7.21 14.55,16.36 14.55,46.35 v 213.53 c 0,36.41 -3.65,55.45 -67.25,57.25 v 15.48 h 143.56 v -311.72 c 0,-32.68 1.81,-53.6 56.38,-51.76 v -12.8"
         style="fill:#231f20;fill-opacity:1;fill-rule:nonzero;stroke:none"
         transform="matrix(0.13333333,0,0,-0.13333333,0,225.89333)" />
      <path
         id="path4"
         d="m 1928.53,1087.11 c 53.6,3.61 69.97,15.48 69.97,65.39 v 433.54 c 0,40.89 -5.46,55.44 -40.86,55.44 -11.84,0 -20.01,-0.97 -30.94,-1.84 v 14.54 c 48.18,11.84 96.33,24.5 144.53,39.98 l 3.6,-1.8 v -542.54 c 0,-52.72 15.45,-59.94 68.17,-62.71 v -13.63 h -214.47 v 13.63"
         style="fill:#231f20;fill-opacity:1;fill-rule:nonzero;stroke:none"
         transform="matrix(0.13333333,0,0,-0.13333333,0,225.89333)" />
      <path
         id="path5"
         d="m 2368.34,1317 c -137.19,-45.46 -147.2,-96.34 -147.2,-127.16 v -1.85 c 0,-42.7 26.37,-70.88 60,-70.88 19.97,0 48.14,11.87 56.34,16.36 28.17,13.63 30.86,24.53 30.86,51.84 z m 140.91,-207.14 c -38.18,-44.56 -66.38,-45.52 -80.91,-45.52 -16.36,0 -54.49,0.96 -59.07,66.4 -33.62,-30 -81.76,-66.4 -131.75,-66.4 -49.06,0 -96.36,33.73 -96.36,94.54 0,90.89 79.07,121.8 227.18,179.98 v 55.45 c 0,65.39 -42.69,75.41 -69.95,75.41 -29.97,0 -64.53,-16.36 -64.53,-44.49 0,-13.68 4.55,-27.36 4.55,-35.49 0,-19.05 -17.27,-39.09 -40.88,-39.09 -28.18,0 -39.11,25.5 -39.11,40.01 0,36.37 42.74,100.87 148.14,100.87 135.44,0 135.44,-90.89 135.44,-145.41 v -177.21 c 0,-26.39 0,-52.72 26.32,-52.72 19.12,0 30.91,9.09 40.93,17.28 v -23.61"
         style="fill:#231f20;fill-opacity:1;fill-rule:nonzero;stroke:none"
         transform="matrix(0.13333333,0,0,-0.13333333,0,225.89333)" />
      <path
         id="path6"
         d="m 2565.59,1380.63 c 0,57.26 -17.27,58.17 -31.82,58.17 -12.75,0 -22.72,-1.79 -26.37,-3.64 v 15.44 c 40.92,11.82 83.62,25.46 125.43,40.93 l 6.35,-1.84 v -71.81 c 44.51,41.82 79.05,73.65 132.66,73.65 41.81,0 106.34,-24.58 106.34,-136.32 V 1147.1 c 0,-42.71 10.94,-56.38 55.43,-59.99 v -13.63 H 2744.6 v 13.63 c 33.62,2.77 57.27,7.3 57.27,76.34 v 189.89 c 0,55.48 -16.39,88.19 -69.99,88.19 -27.27,0 -55.42,-18.2 -89.98,-51.79 v -255.35 c 0,-30 12.72,-44.51 59.99,-47.28 v -13.63 h -192.68 v 13.63 c 42.71,2.77 56.38,14.52 56.38,68.17 v 225.35"
         style="fill:#231f20;fill-opacity:1;fill-rule:nonzero;stroke:none"
         transform="matrix(0.13333333,0,0,-0.13333333,0,225.89333)" />
      <path
         id="path7"
         d="m 3180.71,1354.29 c -6.39,43.58 -15.49,104.49 -87.25,104.49 -49.98,0 -85.43,-24.5 -99.94,-104.49 z m 109.96,-138.08 c -9.12,-28.22 -61.82,-151.87 -192.72,-151.87 -100.82,0 -169.91,74.62 -169.91,203.63 0,168.12 112.71,223.56 185.38,223.56 85.43,0 149.96,-47.26 159.98,-166.35 h -282.63 c 10.88,-160.8 84.51,-198.09 144.51,-198.09 80.84,0 119.9,61.83 140.82,95.43 l 14.57,-6.31"
         style="fill:#231f20;fill-opacity:1;fill-rule:nonzero;stroke:none"
         transform="matrix(0.13333333,0,0,-0.13333333,0,225.89333)" />
      <path
         id="path8"
         d="m 1890.36,955.586 c -69.98,-7.305 -85.41,-20.941 -85.41,-116.352 V 602.039 c 0,-72.648 0,-243.519 -235.37,-243.519 -225.39,0 -225.39,177.218 -225.39,231.691 v 283.578 c 0,67.195 -12.72,77.266 -81.81,81.797 v 17.273 h 257.18 v -17.273 c -71.78,-5.504 -82.67,-17.332 -82.67,-81.797 V 582.961 c 0,-58.141 0,-184.481 158.11,-184.481 70.88,0 122.68,29.11 149.04,71.829 11.82,19.961 20.89,49.941 20.89,123.652 v 245.273 c 0,97.266 -21.78,112.692 -85.42,116.352 v 17.273 h 210.85 v -17.273"
         style="fill:#231f20;fill-opacity:1;fill-rule:nonzero;stroke:none"
         transform="matrix(0.13333333,0,0,-0.13333333,0,225.89333)" />
      <path
         id="path9"
         d="m 1891.26,678.371 c 0,57.258 -17.3,58.184 -31.79,58.184 -12.76,0 -22.76,-1.809 -26.4,-3.649 v 15.434 c 40.89,11.828 83.61,25.461 125.43,40.933 l 6.37,-1.839 v -71.813 c 44.53,41.82 79.04,73.652 132.64,73.652 41.82,0 106.38,-24.582 106.38,-136.324 V 444.84 c 0,-42.711 10.86,-56.379 55.41,-59.981 V 371.23 h -189.04 v 13.629 c 33.63,2.762 57.25,7.301 57.25,76.332 v 189.891 c 0,55.477 -16.32,88.195 -69.96,88.195 -27.31,0 -55.46,-18.203 -89.95,-51.789 V 432.129 c 0,-30 12.71,-44.508 59.95,-47.27 V 371.23 h -192.64 v 13.629 c 42.68,2.762 56.35,14.512 56.35,68.153 v 225.359"
         style="fill:#231f20;fill-opacity:1;fill-rule:nonzero;stroke:none"
         transform="matrix(0.13333333,0,0,-0.13333333,0,225.89333)" />
      <path
         id="path10"
         d="m 2360.18,991.902 c 27.25,0 47.26,-20.89 47.26,-46.339 0,-26.352 -20.01,-46.36 -47.26,-46.36 -32.73,0 -45.39,29.113 -45.39,46.36 0,17.359 13.54,46.339 45.39,46.339 z M 2258.32,384.859 c 56.47,2.762 71.9,8.219 71.9,79.063 V 674.77 c 0,53.558 -17.28,54.484 -31.83,54.484 -12.73,0 -24.58,-1.758 -36.34,-3.609 v 13.632 c 47.24,15.473 93.59,32.672 140.81,49.996 l 3.64,-2.726 V 463.922 c 0,-60.031 4.55,-75.461 67.29,-79.063 V 371.23 h -215.47 v 13.629"
         style="fill:#231f20;fill-opacity:1;fill-rule:nonzero;stroke:none"
         transform="matrix(0.13333333,0,0,-0.13333333,0,225.89333)" />
      <path
         id="path11"
         d="m 2845.89,766.543 c -30.89,-2.688 -37.24,-17.285 -59.1,-70.93 L 2670.53,403.891 c -10.02,-24.481 -18.21,-45.371 -24.58,-45.371 -8.2,0 -9.99,3.562 -24.53,42.699 -21.81,56.363 -109.01,267.222 -141.78,331.687 -13.57,27.262 -31.8,32.754 -49.95,33.637 v 13.629 h 178.08 v -13.629 c -21.84,-1.852 -41.81,-4.574 -41.81,-27.266 0,-10.949 5.49,-24.492 8.23,-31.836 l 92.69,-232.609 c 30.89,87.25 95.38,229.008 95.38,261.723 0,20.886 -19.92,29.105 -42.7,29.988 v 13.629 h 126.33 v -13.629"
         style="fill:#231f20;fill-opacity:1;fill-rule:nonzero;stroke:none"
         transform="matrix(0.13333333,0,0,-0.13333333,0,225.89333)" />
      <path
         id="path12"
         d="m 3055.03,652.039 c -6.39,43.574 -15.47,104.481 -87.25,104.481 -49.95,0 -85.38,-24.497 -99.99,-104.481 z m 109.98,-138.09 c -9.11,-28.219 -61.8,-151.867 -192.66,-151.867 -100.87,0 -169.96,74.629 -169.96,203.637 0,168.105 112.66,223.554 185.41,223.554 85.43,0 149.88,-47.261 159.96,-166.351 h -282.69 c 10.88,-160.801 84.52,-198.082 144.54,-198.082 80.84,0 119.95,61.82 140.83,95.41 l 14.57,-6.301"
         style="fill:#231f20;fill-opacity:1;fill-rule:nonzero;stroke:none"
         transform="matrix(0.13333333,0,0,-0.13333333,0,225.89333)" />
      <path
         id="path13"
         d="m 3203.13,674.77 c 0,53.558 -17.28,54.484 -31.8,54.484 -12.79,0 -22.73,-1.758 -30.89,-3.609 v 14.558 c 44.47,14.547 89.96,30.863 134.49,49.07 l 4.53,-1.839 v -80.875 h 1.85 c 42.7,64.507 73.52,82.714 108.13,82.714 30.92,0 49.12,-19.078 49.12,-49.07 0,-22.738 -12.75,-40.023 -34.61,-40.023 -31.8,0 -40.9,31.843 -62.69,31.843 -21.82,0 -61.8,-45.472 -61.8,-74.523 V 453.012 c 0,-62.66 30.86,-66.34 77.21,-68.153 V 371.23 h -218.11 v 13.629 c 50.06,9.102 64.57,11.813 64.57,62.7 V 674.77"
         style="fill:#231f20;fill-opacity:1;fill-rule:nonzero;stroke:none"
         transform="matrix(0.13333333,0,0,-0.13333333,0,225.89333)" />
      <path
         id="path14"
         d="m 3672.5,656.559 c -19.97,92.699 -60.87,111.785 -100.87,111.785 -49.96,0 -69.05,-35.438 -69.05,-59.051 0,-18.203 5.45,-44.543 39.11,-64.512 l 98.13,-58.179 c 44.49,-27.25 76.35,-52.672 76.35,-107.25 0,-79.012 -73.64,-117.27 -131.81,-117.27 -40.88,0 -79.94,17.328 -105.39,16.398 -10.96,0 -14.55,-2.73 -20,-10.91 h -11.87 v 141.782 h 14.62 c 10.82,-48.161 28.11,-127.231 117.19,-127.231 30.92,0 73.62,14.551 73.62,66.309 0,29.121 -18.16,50.89 -47.29,67.34 l -52.7,29.902 c -56.34,31.867 -106.3,65.519 -106.3,132.699 0,50.883 39.1,110.902 127.18,110.902 40.02,0 68.16,-18.207 83.65,-18.207 8.2,0 12.75,6.344 15.43,10.024 h 10.02 l 3.59,-124.531 h -13.61"
         style="fill:#231f20;fill-opacity:1;fill-rule:nonzero;stroke:none"
         transform="matrix(0.13333333,0,0,-0.13333333,0,225.89333)" />
      <path
         id="path15"
         d="m 3815.23,991.902 c 27.17,0 47.19,-20.89 47.19,-46.339 0,-26.352 -20.02,-46.36 -47.19,-46.36 -32.81,0 -45.51,29.113 -45.51,46.36 0,17.359 13.67,46.339 45.51,46.339 z m -101.8,-607.043 c 56.29,2.762 71.76,8.219 71.76,79.063 V 674.77 c 0,53.558 -17.26,54.484 -31.83,54.484 -12.76,0 -24.54,-1.758 -36.31,-3.609 v 13.632 c 47.22,15.473 93.59,32.672 140.84,49.996 l 3.69,-2.726 V 463.922 c 0,-60.031 4.53,-75.461 67.15,-79.063 V 371.23 h -215.3 v 13.629"
         style="fill:#231f20;fill-opacity:1;fill-rule:nonzero;stroke:none"
         transform="matrix(0.13333333,0,0,-0.13333333,0,225.89333)" />
      <path
         id="path16"
         d="m 4106.5,751.109 h -91.86 V 491.141 c 0,-28.09 0,-81.743 46.35,-81.743 29.1,0 45.51,20.024 55.45,31.832 l 11.82,-10.011 c -21.76,-39.059 -64.49,-69.137 -106.31,-69.137 -46.35,0 -83.59,24.59 -83.59,115.469 v 273.558 h -48.25 c -1.75,0.918 -3.55,3.641 -3.55,6.332 0,10.903 19.94,16.36 39.92,36.372 34.55,35.429 48.2,55.496 81.82,103.589 6.34,0 6.34,-4.527 6.34,-11.82 v -105.41 h 91.86 v -29.063"
         style="fill:#231f20;fill-opacity:1;fill-rule:nonzero;stroke:none"
         transform="matrix(0.13333333,0,0,-0.13333333,0,225.89333)" />
      <path
         id="path17"
         d="m 4538.1,766.543 c -11.83,-1.852 -29.94,-3.656 -43.59,-40.898 L 4354.57,354.871 c -46.41,-121.711 -86.39,-181.73 -154.54,-181.73 -45.39,0 -66.32,29.097 -66.32,52.66 0,5.488 1.81,40.031 43.63,40.031 24.53,0 52.77,-16.41 64.51,-16.41 47.27,0 83.63,125.5 83.63,140 0,13.629 -43.65,97.238 -56.38,125.367 l -103.54,223.527 c -10.92,22.817 -34.61,27.344 -46.35,29.145 v 12.711 h 187.15 v -13.629 c -20.93,-0.883 -52.71,-1.852 -52.71,-26.34 0,-11.875 6.4,-26.387 9.14,-32.762 l 104.43,-229.89 70.92,201.75 c 9.06,24.539 20.94,53.605 20.94,61.777 0,17.285 -14.59,26.383 -43.64,25.465 v 13.629 h 122.66 v -13.629"
         style="fill:#231f20;fill-opacity:1;fill-rule:nonzero;stroke:none"
         transform="matrix(0.13333333,0,0,-0.13333333,0,225.89333)" />
      <path
         id="path18"
         d="M 6.58594,1677.84 6.72266,1361.77 6.87891,858.063 C 6.87891,678.02 18.7539,623.93 124.477,499.641 230.211,375.379 500.801,275.02 500.801,275.02 c 0,0 270.332,100.359 376.117,224.621 105.738,124.289 117.496,178.379 117.496,358.422 l 0.274,503.707 0.054,316.07 c 0,0 -121.769,-72.5 -245.699,-63.39 -140.547,10.34 -248.242,65.73 -248.242,65.73 0,0 -107.969,-55.39 -248.446,-65.73 -124.015,-9.11 -245.76906,63.39 -245.76906,63.39"
         style="fill:#ffffff;fill-opacity:1;fill-rule:nonzero;stroke:none"
         transform="matrix(0.13333333,0,0,-0.13333333,0,225.89333)" />
      <path
         id="path19"
         d="M 6.58594,1677.84 6.72266,1361.77 6.87891,858.063 C 6.87891,678.02 18.7539,623.93 124.477,499.641 230.211,375.379 500.801,275.02 500.801,275.02 c 0,0 270.332,100.359 376.117,224.621 105.738,124.289 117.496,178.379 117.496,358.422 l 0.274,503.707 0.054,316.07 c 0,0 -121.769,-72.5 -245.699,-63.39 -140.547,10.34 -248.242,65.73 -248.242,65.73 0,0 -107.969,-55.39 -248.446,-65.73 -124.015,-9.11 -245.76906,63.39 -245.76906,63.39 z"
         style="fill:none;stroke:#231f20;stroke-width:13.165;stroke-linecap:butt;stroke-linejoin:miter;stroke-miterlimit:4;stroke-dasharray:none;stroke-opacity:1"
         transform="matrix(0.13333333,0,0,-0.13333333,0,225.89333)" />
      <path
         id="path20"
         d="m 38.9805,1621.97 0.1367,-279.46 0.1367,-474.08 c 0,-169.453 7.8281,-223.692 107.3321,-340.68 99.523,-116.961 354.215,-211.43 354.215,-211.43 0,0 254.418,94.469 353.976,211.43 99.504,116.988 104.555,167.879 104.555,337.332 l 0.273,474.078 0.055,278.32 c 0,0 -108.59,-49.08 -225.242,-40.48 -132.273,9.73 -233.617,61.86 -233.617,61.86 0.019,0 -104.313,-52.33 -233.856,-61.86 -116.718,-8.6 -227.9645,44.97 -227.9645,44.97"
         style="fill:#231f20;fill-opacity:1;fill-rule:nonzero;stroke:none"
         transform="matrix(0.13333333,0,0,-0.13333333,0,225.89333)" />
      <path
         id="path21"
         d="m 500.168,786.641 c -34.504,0 -143.141,-10.25 -219.918,66.511 -20.445,21.75 -44.836,68.059 -44.836,146.196 0,78.102 0,235.052 0,235.052 0,0 8.531,143.67 -43.496,167.73 l 4.016,19.68 c 0,0 158.211,25.8 195.492,44.85 l 10.883,-60.59 c 0,0 -77.414,-5.7 -77.414,-98.99 0.566,0.55 0.293,-270.18 0.293,-270.18 0,0 -0.965,-45.552 10.179,-74.529 15.621,-40.473 40.918,-58.445 164.285,-58.445"
         style="fill:#ffffff;fill-opacity:1;fill-rule:nonzero;stroke:#231f20;stroke-width:10.124;stroke-linecap:butt;stroke-linejoin:miter;stroke-miterlimit:4;stroke-dasharray:none;stroke-opacity:1"
         transform="matrix(0.13333333,0,0,-0.13333333,0,225.89333)" />
      <path
         id="path22"
         d="m 500.133,786.641 c 34.5,0 143.172,-10.25 219.867,66.511 20.406,21.75 44.918,68.059 44.918,146.196 0,78.102 0,235.052 0,235.052 0,0 -8.613,143.67 43.445,167.73 l -4.015,19.68 c 0,0 -158.196,25.8 -195.528,44.85 l -10.867,-60.59 c 0,0 77.383,-5.7 77.383,-98.99 -0.516,0.55 -0.258,-270.18 -0.258,-270.18 0,0 0.942,-45.552 -10.23,-74.529 -15.606,-40.473 -40.887,-58.445 -164.239,-58.445"
         style="fill:#ffffff;fill-opacity:1;fill-rule:nonzero;stroke:#231f20;stroke-width:10.124;stroke-linecap:butt;stroke-linejoin:miter;stroke-miterlimit:4;stroke-dasharray:none;stroke-opacity:1"
         transform="matrix(0.13333333,0,0,-0.13333333,0,225.89333)" />
      <path
         id="path23"
         d="m 500.133,1315.87 c 230.215,0 341.976,-29.54 341.976,-29.54 l 48.235,-173.18 -53.039,-30.59 -80.059,116.14 c -97.773,14.07 -198.34,13.22 -198.34,13.22 l -0.722,-458.975 c 0,-38.226 7.281,-64.265 43.652,-64.265 0.512,0 67.594,0 67.594,0 V 576.199 h -170 1.461 -170.11 V 688.68 c 0,0 67.184,0 67.68,0 36.375,0 43.621,26.039 43.621,64.265 l -0.703,458.975 c 0,0 -100.586,0.85 -198.274,-13.22 l -80.16,-116.14 -52.988,30.59 48.266,173.18 c 0,0 111.64,29.54 341.945,29.54 h -0.035"
         style="fill:#ffffff;fill-opacity:1;fill-rule:nonzero;stroke:none"
         transform="matrix(0.13333333,0,0,-0.13333333,0,225.89333)" />
      <path
         id="path24"
         d="m 500.133,1315.87 c 230.215,0 341.976,-29.54 341.976,-29.54 l 48.235,-173.18 -53.039,-30.59 -80.059,116.14 c -97.773,14.07 -198.34,13.22 -198.34,13.22 l -0.722,-458.975 c 0,-38.226 7.281,-64.265 43.652,-64.265 0.512,0 67.594,0 67.594,0 V 576.199 h -170 1.461 -170.11 V 688.68 c 0,0 67.184,0 67.68,0 36.375,0 43.621,26.039 43.621,64.265 l -0.703,458.975 c 0,0 -100.586,0.85 -198.274,-13.22 l -80.16,-116.14 -52.988,30.59 48.266,173.18 c 0,0 111.64,29.54 341.945,29.54 z"
         style="fill:none;stroke:#231f20;stroke-width:10.124;stroke-linecap:butt;stroke-linejoin:miter;stroke-miterlimit:4;stroke-dasharray:none;stroke-opacity:1"
         transform="matrix(0.13333333,0,0,-0.13333333,0,225.89333)" />
    </g>
  </g>
</svg>
