<?xml version="1.0" encoding="UTF-8" standalone="no"?>
<!-- Created with Inkscape (http://www.inkscape.org/) -->

<svg
   version="1.1"
   id="svg1"
   width="604.1333"
   height="225.75999"
   viewBox="0 0 604.1333 225.75999"
   sodipodi:docname="UHLogo-white.eps"
   xmlns:inkscape="http://www.inkscape.org/namespaces/inkscape"
   xmlns:sodipodi="http://sodipodi.sourceforge.net/DTD/sodipodi-0.dtd"
   xmlns="http://www.w3.org/2000/svg"
   xmlns:svg="http://www.w3.org/2000/svg">
  <defs
     id="defs1" />
  <sodipodi:namedview
     id="namedview1"
     pagecolor="#ffffff"
     bordercolor="#000000"
     borderopacity="0.25"
     inkscape:showpageshadow="2"
     inkscape:pageopacity="0.0"
     inkscape:pagecheckerboard="0"
     inkscape:deskcolor="#d1d1d1">
    <inkscape:page
       x="0"
       y="0"
       inkscape:label="1"
       id="page1"
       width="604.1333"
       height="225.75999"
       margin="0"
       bleed="0" />
  </sodipodi:namedview>
  <g
     id="g1"
     inkscape:groupmode="layer"
     inkscape:label="1">
    <g
       id="group-R5">
      <path
         id="path2"
         d="m 1518.14,1072.48 h -265.36 v 17.24 c 82.7,3.69 85.44,24.55 85.44,91.86 v 454.32 h -49.05 c -100,0 -124.51,-17.24 -144.54,-116.35 h -21.79 l 5.46,154.58 h 512.54 l 5.45,-154.58 h -21.81 c -19.1,100.05 -44.54,116.35 -144.5,116.35 h -49.06 v -464.34 c 0,-61.78 10.88,-79.07 87.22,-81.84 v -17.24"
         style="fill:#ffffff;fill-opacity:1;fill-rule:nonzero;stroke:none"
         transform="matrix(0.13333333,0,0,-0.13333333,0,225.76)" />
      <path
         id="path3"
         d="m 1937.83,1105.15 c -49.1,-12.66 -83.66,-25.41 -126.33,-40.85 l -1.82,1.81 v 75.41 l -39.1,-39.04 c -35.4,-35.41 -79.03,-39.14 -95.4,-39.14 -37.29,0 -108.15,21.85 -108.15,118.24 v 228.97 c 0,54.56 -29.07,56.36 -56.33,58.17 v 12.71 h 132.69 v -296.29 c 0,-12.66 8.16,-69.03 68.14,-69.03 27.26,0 54.52,12.75 79.06,32.71 8.2,7.21 14.55,16.36 14.55,46.35 v 213.53 c 0,36.41 -3.64,55.45 -67.25,57.25 v 15.48 h 143.56 v -311.72 c 0,-32.68 1.81,-53.6 56.38,-51.76 v -12.8"
         style="fill:#ffffff;fill-opacity:1;fill-rule:nonzero;stroke:none"
         transform="matrix(0.13333333,0,0,-0.13333333,0,225.76)" />
      <path
         id="path4"
         d="m 1921.45,1086.11 c 53.61,3.61 69.97,15.48 69.97,65.39 v 433.54 c 0,40.89 -5.45,55.44 -40.86,55.44 -11.84,0 -20.01,-0.97 -30.93,-1.84 v 14.54 c 48.18,11.84 96.32,24.5 144.52,39.98 l 3.6,-1.8 v -542.54 c 0,-52.72 15.45,-59.94 68.18,-62.71 v -13.63 h -214.48 v 13.63"
         style="fill:#ffffff;fill-opacity:1;fill-rule:nonzero;stroke:none"
         transform="matrix(0.13333333,0,0,-0.13333333,0,225.76)" />
      <path
         id="path5"
         d="m 2361.26,1316 c -137.18,-45.46 -147.19,-96.34 -147.19,-127.16 v -1.85 c 0,-42.7 26.36,-70.88 60,-70.88 19.97,0 48.13,11.87 56.33,16.36 28.17,13.63 30.86,24.53 30.86,51.84 z m 140.91,-207.14 c -38.17,-44.56 -66.38,-45.52 -80.91,-45.52 -16.35,0 -54.49,0.96 -59.07,66.4 -33.61,-30 -81.76,-66.4 -131.75,-66.4 -49.06,0 -96.35,33.73 -96.35,94.54 0,90.89 79.07,121.8 227.17,179.98 v 55.45 c 0,65.39 -42.69,75.41 -69.95,75.41 -29.97,0 -64.53,-16.36 -64.53,-44.49 0,-13.68 4.55,-27.36 4.55,-35.49 0,-19.05 -17.26,-39.09 -40.88,-39.09 -28.18,0 -39.11,25.5 -39.11,40.01 0,36.37 42.75,100.87 148.15,100.87 135.44,0 135.44,-90.89 135.44,-145.41 v -177.21 c 0,-26.39 0,-52.72 26.31,-52.72 19.12,0 30.91,9.09 40.93,17.28 v -23.61"
         style="fill:#ffffff;fill-opacity:1;fill-rule:nonzero;stroke:none"
         transform="matrix(0.13333333,0,0,-0.13333333,0,225.76)" />
      <path
         id="path6"
         d="m 2558.51,1379.63 c 0,57.26 -17.27,58.17 -31.82,58.17 -12.75,0 -22.72,-1.79 -26.36,-3.64 v 15.44 c 40.91,11.82 83.61,25.46 125.43,40.93 l 6.34,-1.84 v -71.81 c 44.51,41.82 79.06,73.65 132.66,73.65 41.81,0 106.34,-24.58 106.34,-136.32 V 1146.1 c 0,-42.71 10.94,-56.38 55.43,-59.99 v -13.63 h -189.01 v 13.63 c 33.63,2.77 57.27,7.3 57.27,76.34 v 189.89 c 0,55.48 -16.39,88.19 -69.99,88.19 -27.27,0 -55.42,-18.2 -89.97,-51.79 v -255.35 c 0,-30 12.71,-44.51 59.98,-47.28 v -13.63 h -192.68 v 13.63 c 42.72,2.77 56.38,14.52 56.38,68.17 v 225.35"
         style="fill:#ffffff;fill-opacity:1;fill-rule:nonzero;stroke:none"
         transform="matrix(0.13333333,0,0,-0.13333333,0,225.76)" />
      <path
         id="path7"
         d="m 3173.63,1353.29 c -6.39,43.58 -15.49,104.49 -87.25,104.49 -49.98,0 -85.42,-24.5 -99.94,-104.49 z m 109.96,-138.08 c -9.12,-28.22 -61.81,-151.87 -192.71,-151.87 -100.82,0 -169.92,74.62 -169.92,203.63 0,168.12 112.71,223.56 185.39,223.56 85.43,0 149.96,-47.26 159.98,-166.35 h -282.64 c 10.88,-160.8 84.51,-198.09 144.51,-198.09 80.84,0 119.9,61.82 140.82,95.43 l 14.57,-6.31"
         style="fill:#ffffff;fill-opacity:1;fill-rule:nonzero;stroke:none"
         transform="matrix(0.13333333,0,0,-0.13333333,0,225.76)" />
      <path
         id="path8"
         d="m 1883.28,954.586 c -69.98,-7.305 -85.41,-20.941 -85.41,-116.352 V 601.039 c 0,-72.648 0,-243.519 -235.37,-243.519 -225.38,0 -225.38,177.218 -225.38,231.691 v 283.578 c 0,67.195 -12.73,77.266 -81.81,81.797 v 17.273 h 257.17 v -17.273 c -71.78,-5.504 -82.67,-17.332 -82.67,-81.797 V 581.961 c 0,-58.141 0,-184.481 158.11,-184.481 70.88,0 122.68,29.11 149.05,71.829 11.81,19.961 20.88,49.941 20.88,123.652 v 245.273 c 0,97.266 -21.78,112.692 -85.42,116.352 v 17.273 h 210.85 v -17.273"
         style="fill:#ffffff;fill-opacity:1;fill-rule:nonzero;stroke:none"
         transform="matrix(0.13333333,0,0,-0.13333333,0,225.76)" />
      <path
         id="path9"
         d="m 1884.18,677.371 c 0,57.258 -17.3,58.184 -31.78,58.184 -12.76,0 -22.76,-1.809 -26.41,-3.649 v 15.434 c 40.89,11.824 83.61,25.461 125.43,40.933 l 6.38,-1.839 v -71.813 c 44.52,41.82 79.03,73.652 132.63,73.652 41.82,0 106.38,-24.582 106.38,-136.324 V 443.84 c 0,-42.711 10.86,-56.379 55.41,-59.981 V 370.23 h -189.04 v 13.629 c 33.63,2.762 57.25,7.301 57.25,76.332 v 189.887 c 0,55.481 -16.32,88.199 -69.96,88.199 -27.3,0 -55.46,-18.203 -89.94,-51.789 V 431.129 c 0,-30 12.7,-44.508 59.95,-47.27 V 370.23 h -192.64 v 13.629 c 42.68,2.762 56.34,14.512 56.34,68.153 v 225.359"
         style="fill:#ffffff;fill-opacity:1;fill-rule:nonzero;stroke:none"
         transform="matrix(0.13333333,0,0,-0.13333333,0,225.76)" />
      <path
         id="path10"
         d="m 2353.1,990.902 c 27.25,0 47.26,-20.89 47.26,-46.339 0,-26.356 -20.01,-46.36 -47.26,-46.36 -32.73,0 -45.39,29.113 -45.39,46.36 0,17.359 13.54,46.339 45.39,46.339 z M 2251.24,383.859 c 56.47,2.762 71.9,8.219 71.9,79.063 V 673.77 c 0,53.558 -17.28,54.484 -31.83,54.484 -12.72,0 -24.58,-1.758 -36.34,-3.609 v 13.632 c 47.24,15.473 93.59,32.672 140.81,49.996 l 3.65,-2.726 V 462.922 c 0,-60.031 4.54,-75.461 67.28,-79.063 V 370.23 h -215.47 v 13.629"
         style="fill:#ffffff;fill-opacity:1;fill-rule:nonzero;stroke:none"
         transform="matrix(0.13333333,0,0,-0.13333333,0,225.76)" />
      <path
         id="path11"
         d="m 2838.82,765.543 c -30.9,-2.688 -37.24,-17.285 -59.11,-70.93 L 2663.45,402.891 c -10.02,-24.481 -18.21,-45.371 -24.58,-45.371 -8.19,0 -9.99,3.558 -24.53,42.699 -21.81,56.359 -109,267.222 -141.78,331.687 -13.57,27.258 -31.8,32.754 -49.95,33.637 v 13.629 h 178.09 v -13.629 c -21.85,-1.852 -41.82,-4.574 -41.82,-27.266 0,-10.949 5.49,-24.492 8.23,-31.836 l 92.69,-232.613 c 30.9,87.25 95.38,229.012 95.38,261.727 0,20.886 -19.91,29.105 -42.7,29.988 v 13.629 h 126.34 v -13.629"
         style="fill:#ffffff;fill-opacity:1;fill-rule:nonzero;stroke:none"
         transform="matrix(0.13333333,0,0,-0.13333333,0,225.76)" />
      <path
         id="path12"
         d="m 3047.95,651.039 c -6.39,43.574 -15.47,104.481 -87.25,104.481 -49.95,0 -85.38,-24.497 -99.99,-104.481 z m 109.98,-138.09 c -9.1,-28.219 -61.8,-151.871 -192.66,-151.871 -100.87,0 -169.95,74.633 -169.95,203.641 0,168.105 112.66,223.554 185.4,223.554 85.43,0 149.88,-47.261 159.96,-166.351 H 2858 c 10.88,-160.801 84.51,-198.082 144.54,-198.082 80.84,0 119.94,61.82 140.82,95.41 l 14.57,-6.301"
         style="fill:#ffffff;fill-opacity:1;fill-rule:nonzero;stroke:none"
         transform="matrix(0.13333333,0,0,-0.13333333,0,225.76)" />
      <path
         id="path13"
         d="m 3196.05,673.77 c 0,53.558 -17.28,54.484 -31.79,54.484 -12.8,0 -22.74,-1.758 -30.9,-3.609 v 14.558 c 44.47,14.547 89.96,30.863 134.49,49.07 l 4.53,-1.839 v -80.875 h 1.86 c 42.69,64.507 73.51,82.714 108.12,82.714 30.92,0 49.12,-19.078 49.12,-49.07 0,-22.738 -12.75,-40.023 -34.61,-40.023 -31.79,0 -40.9,31.843 -62.69,31.843 -21.82,0 -61.8,-45.472 -61.8,-74.523 V 452.012 c 0,-62.66 30.86,-66.34 77.21,-68.153 V 370.23 h -218.11 v 13.629 c 50.06,9.102 64.57,11.813 64.57,62.7 V 673.77"
         style="fill:#ffffff;fill-opacity:1;fill-rule:nonzero;stroke:none"
         transform="matrix(0.13333333,0,0,-0.13333333,0,225.76)" />
      <path
         id="path14"
         d="m 3665.42,655.559 c -19.96,92.699 -60.87,111.785 -100.87,111.785 -49.96,0 -69.04,-35.438 -69.04,-59.051 0,-18.203 5.45,-44.543 39.1,-64.512 l 98.13,-58.179 c 44.49,-27.25 76.35,-52.672 76.35,-107.25 0,-79.012 -73.63,-117.274 -131.81,-117.274 -40.88,0 -79.94,17.332 -105.39,16.402 -10.95,0 -14.55,-2.73 -20,-10.91 h -11.87 v 141.782 h 14.63 c 10.82,-48.161 28.1,-127.231 117.18,-127.231 30.92,0 73.63,14.551 73.63,66.309 0,29.121 -18.17,50.89 -47.3,67.34 l -52.69,29.902 c -56.35,31.867 -106.31,65.519 -106.31,132.699 0,50.883 39.1,110.902 127.19,110.902 40.02,0 68.15,-18.207 83.64,-18.207 8.2,0 12.75,6.344 15.43,10.024 h 10.02 l 3.59,-124.531 h -13.61"
         style="fill:#ffffff;fill-opacity:1;fill-rule:nonzero;stroke:none"
         transform="matrix(0.13333333,0,0,-0.13333333,0,225.76)" />
      <path
         id="path15"
         d="m 3808.15,990.902 c 27.17,0 47.19,-20.89 47.19,-46.339 0,-26.356 -20.02,-46.36 -47.19,-46.36 -32.81,0 -45.51,29.113 -45.51,46.36 0,17.359 13.68,46.339 45.51,46.339 z M 3706.36,383.859 c 56.28,2.762 71.75,8.219 71.75,79.063 V 673.77 c 0,53.558 -17.26,54.484 -31.83,54.484 -12.76,0 -24.53,-1.758 -36.31,-3.609 v 13.632 c 47.23,15.473 93.59,32.672 140.84,49.996 l 3.69,-2.726 V 462.922 c 0,-60.031 4.53,-75.461 67.15,-79.063 V 370.23 h -215.29 v 13.629"
         style="fill:#ffffff;fill-opacity:1;fill-rule:nonzero;stroke:none"
         transform="matrix(0.13333333,0,0,-0.13333333,0,225.76)" />
      <path
         id="path16"
         d="m 4099.42,750.109 h -91.85 V 490.141 c 0,-28.09 0,-81.743 46.34,-81.743 29.11,0 45.51,20.024 55.45,31.832 l 11.82,-10.011 c -21.76,-39.059 -64.49,-69.141 -106.31,-69.141 -46.35,0 -83.59,24.594 -83.59,115.473 v 273.558 h -48.24 c -1.76,0.918 -3.56,3.641 -3.56,6.332 0,10.903 19.94,16.36 39.92,36.372 34.55,35.429 48.21,55.496 81.82,103.589 6.35,0 6.35,-4.527 6.35,-11.82 v -105.41 h 91.85 v -29.063"
         style="fill:#ffffff;fill-opacity:1;fill-rule:nonzero;stroke:none"
         transform="matrix(0.13333333,0,0,-0.13333333,0,225.76)" />
      <path
         id="path17"
         d="m 4531.02,765.543 c -11.83,-1.852 -29.94,-3.656 -43.59,-40.898 L 4347.49,353.871 c -46.41,-121.711 -86.39,-181.73 -154.53,-181.73 -45.39,0 -66.33,29.097 -66.33,52.66 0,5.488 1.82,40.027 43.63,40.027 24.53,0 52.78,-16.406 64.51,-16.406 47.27,0 83.64,125.5 83.64,140 0,13.629 -43.66,97.238 -56.39,125.367 l -103.54,223.527 c -10.91,22.817 -34.6,27.344 -46.34,29.145 v 12.711 h 187.15 v -13.629 c -20.94,-0.883 -52.72,-1.852 -52.72,-26.34 0,-11.875 6.41,-26.387 9.14,-32.762 l 104.43,-229.89 70.92,201.75 c 9.07,24.539 20.94,53.605 20.94,61.777 0,17.285 -14.59,26.383 -43.63,25.465 v 13.629 h 122.65 v -13.629"
         style="fill:#ffffff;fill-opacity:1;fill-rule:nonzero;stroke:none"
         transform="matrix(0.13333333,0,0,-0.13333333,0,225.76)" />
      <path
         id="path18"
         d="M 3.3125,1673.18 3.46875,1358.35 3.59766,856.656 C 3.59766,677.309 15.4688,623.41 120.762,499.66 226.102,375.82 495.586,275.871 495.586,275.871 c 0,0 269.258,99.949 374.648,223.789 105.293,123.75 116.965,177.649 116.965,356.996 l 0.305,501.694 0.086,314.83 c 0,0 -121.277,-72.23 -244.711,-63.15 -139.981,10.3 -247.293,65.47 -247.293,65.47 0,0 -107.535,-55.17 -247.473,-65.47 -123.515,-9.08 -244.8005,63.15 -244.8005,63.15 z"
         style="fill:none;stroke:#ffffff;stroke-width:6.61948;stroke-linecap:butt;stroke-linejoin:miter;stroke-miterlimit:4;stroke-dasharray:none;stroke-opacity:1"
         transform="matrix(0.13333333,0,0,-0.13333333,0,225.76)" />
      <path
         id="path19"
         d="m 830.754,1080.21 -72.137,104.7 c 0,-52.37 0,-136.73 0,-187.555 0,-77.812 -24.367,-123.953 -44.668,-145.605 -50.023,-50.035 -113.527,-62.895 -161.164,-65.855 l -0.062,-33.93 c 0,-38.117 7.277,-64.074 43.461,-64.074 0.566,0 67.355,0 67.355,0 V 575.879 h -167.84 -1.472 -167.981 v 112.012 c 0,0 66.914,0 67.399,0 36.265,0 43.457,25.957 43.457,64.074 l -0.051,33.933 c -47.629,2.965 -111.121,15.836 -161.141,65.852 -20.371,21.652 -44.656,67.793 -44.656,145.605 0,50.795 0,135.085 0,187.465 l -72.184,-104.61 -52.769,30.51 48.058,172.46 c 0,0 24.981,6.59 75.59,13.53 -3.636,41.15 -14.011,88.88 -42.035,101.83 l 4.035,19.62 c 0,0 157.59,25.68 194.699,44.66 l 10.864,-60.36 c 0,0 -75.649,-5.66 -77.012,-96.23 47.691,3.7 105.715,6.34 174.426,6.34 68.691,0 126.715,-2.64 174.41,-6.34 -1.363,90.57 -76.984,96.23 -76.984,96.23 l 10.781,60.36 c 37.234,-18.98 194.789,-44.66 194.789,-44.66 l 3.988,-19.62 c -28.015,-12.95 -38.383,-60.68 -42.004,-101.83 50.649,-6.94 75.66,-13.53 75.66,-13.53 l 48.075,-172.46 z m -102.492,492.5 c -131.758,9.75 -232.676,61.64 -232.676,61.64 0.031,0 -103.902,-52.13 -232.938,-61.64 -116.238,-8.58 -227.0542,44.78 -227.0542,44.78 l 0.121,-278.35 0.1641,-472.171 c 0,-168.774 7.7852,-222.828 106.8941,-339.348 99.149,-116.492 352.813,-210.601 352.813,-210.601 0,0 253.441,94.109 352.586,210.601 99.082,116.52 104.105,167.215 104.105,335.992 l 0.325,472.167 v 277.27 c 0,0 -108.106,-48.92 -224.34,-40.34"
         style="fill:#ffffff;fill-opacity:1;fill-rule:nonzero;stroke:none"
         transform="matrix(0.13333333,0,0,-0.13333333,0,225.76)" />
      <path
         id="path20"
         d="m 320.723,1204.65 c 0.031,-76.71 -0.063,-169.91 -0.063,-169.91 0,0 -0.969,-45.381 10.145,-74.174 12.758,-33.074 32.058,-51.043 106.074,-56.472 l -0.453,304.976 c 0,0 -51.106,0.42 -115.703,-4.42"
         style="fill:#ffffff;fill-opacity:1;fill-rule:nonzero;stroke:none"
         transform="matrix(0.13333333,0,0,-0.13333333,0,225.76)" />
      <path
         id="path21"
         d="m 669.129,1204.66 c -64.57,4.83 -115.602,4.41 -115.602,4.41 l -0.535,-304.976 c 73.988,5.433 93.305,23.402 106,56.472 11.094,28.793 10.219,74.174 10.219,74.174 0,0 -0.106,93.21 -0.082,169.92"
         style="fill:#ffffff;fill-opacity:1;fill-rule:nonzero;stroke:none"
         transform="matrix(0.13333333,0,0,-0.13333333,0,225.76)" />
      <path
         id="path22"
         d="m 832.895,1286.98 c 0,0 -111.29,29.4 -340.641,29.4 -229.356,0 -340.566,-29.4 -340.566,-29.4 l -48.051,-172.45 52.769,-30.52 79.84,115.73 c 97.324,14.03 197.508,13.14 197.508,13.14 l 0.68,-457.107 c 0,-38.121 -7.196,-64.082 -43.457,-64.082 -0.485,0 -67.395,0 -67.395,0 V 579.68 h 167.981 1.468 167.84 v 112.011 c 0,0 -66.793,0 -67.355,0 -36.188,0 -43.457,25.961 -43.457,64.082 l 0.8,457.107 c 0,0 100.102,0.89 197.493,-13.14 l 79.734,-115.73 52.883,30.52 z"
         style="fill:none;stroke:#ffffff;stroke-width:7.76506;stroke-linecap:butt;stroke-linejoin:miter;stroke-miterlimit:4;stroke-dasharray:none;stroke-opacity:1"
         transform="matrix(0.13333333,0,0,-0.13333333,0,225.76)" />
      <path
         id="path23"
         d="m 492.238,1316.38 c 0.004,0 0.012,0 0.016,0 h 0.019 z"
         style="fill:none;stroke:#ffffff;stroke-width:7.76506;stroke-linecap:butt;stroke-linejoin:miter;stroke-miterlimit:4;stroke-dasharray:none;stroke-opacity:1"
         transform="matrix(0.13333333,0,0,-0.13333333,0,225.76)" />
    </g>
  </g>
</svg>
